<?xml version="1.0" encoding="iso-8859-1"?>
<!-- Generator: Adobe Illustrator 19.0.0, SVG Export Plug-In . SVG Version: 6.00 Build 0)  -->
<svg version="1.1" id="Capa_1" xmlns="http://www.w3.org/2000/svg" xmlns:xlink="http://www.w3.org/1999/xlink" x="0px" y="0px"
	 viewBox="0 0 362 362" style="enable-background:new 0 0 362 362;" xml:space="preserve">
<g>
	<g>
		<path d="M351.7,4.501H10.3c-5.6-0.1-10.2,4.4-10.3,9.9v59.9c0,5.5,4.5,10,10,10s10-4.5,10-10v-49.8h151v313h-66.9
			c-5.5,0-10,4.5-10,10s4.5,10,10,10h153.7c5.5,0,10-4.5,10-10s-4.5-10-10-10H191v-313h151v49.9c0,5.5,4.5,10,10,10s10-4.5,10-10
			v-59.9C361.8,8.901,357.2,4.401,351.7,4.501z"/>
	</g>
</g>
<g>
</g>
<g>
</g>
<g>
</g>
<g>
</g>
<g>
</g>
<g>
</g>
<g>
</g>
<g>
</g>
<g>
</g>
<g>
</g>
<g>
</g>
<g>
</g>
<g>
</g>
<g>
</g>
<g>
</g>
</svg>
